# AST/ASF file generated using VICON BodyLanguage
# -----------------------------------------------
:version 1.10
:name VICON
:units
  mass 1.0
  length 0.45
  angle deg
:documentation
   .ast/.asf automatically generated from VICON data using
   VICON BodyBuilder and BodyLanguage model FoxedUp or BRILLIANT.MOD
:root
   order TX TY TZ RX RY RZ
   axis XYZ
   position 0 0 0  
   orientation 0 0 0 
:bonedata
  begin
     id 1 
     name lhipjoint
     direction 0.646657 -0.683706 0.338203 
     length 2.4948 
     axis 0 0 0  XYZ
  end
  begin
     id 2 
     name lfemur
     direction 0.34202 -0.939693 0  
     length 6.79491  
     axis 0 0 20  XYZ
    dof rx ry rz
    limits (-160.0 20.0)
           (-70.0 70.0)
           (-60.0 70.0)
  end
  begin
     id 3 
     name ltibia
     direction 0.34202 -0.939693 0   
     length 7.56807   
     axis 0 0 20   XYZ
    dof rx
    limits (-10.0 170.0)
  end
  begin
     id 4 
     name lfoot
     direction 0.0679796 -0.186772 0.980048   
     length 2.53018   
     axis -90 7.62852e-016 20   XYZ
    dof rx rz
    limits (-45.0 90.0)
           (-70.0 20.0)
  end
  begin
     id 5 
     name ltoes
     direction 1.53625e-011 -4.21881e-011 1   
     length 1.26912   
     axis -90 7.62852e-016 20   XYZ
    dof rx
    limits (-90.0 20.0)
  end
  begin
     id 6 
     name rhipjoint
     direction -0.618868 -0.704065 0.348274   
     length 2.42265  
     axis 0 0 0  XYZ 
  end
  begin
     id 7 
     name rfemur
     direction -0.34202 -0.939693 0   
     length 6.73814   
     axis 0 0 -20   XYZ
    dof rx ry rz
    limits (-160.0 20.0)
           (-70.0 70.0)
           (-70.0 60.0)
  end
  begin
     id 8 
     name rtibia
     direction -0.34202 -0.939693 0   
     length 7.66799   
     axis 0 0 -20   XYZ
    dof rx
    limits (-10.0 170.0)
 end
 begin
     id 9 
     name rfoot
     direction -0.0727352 -0.199838 0.977125   
     length 2.57224  
     axis -90 -7.62852e-016 -20   XYZ
    dof rx rz
    limits (-45.0 90.0)
           (-20.0 70.0)
  end
  begin
     id 10 
     name rtoes
     direction -1.53501e-011 -4.21858e-011 1   
     length 1.28858   
     axis -90 -7.62852e-016 -20   XYZ
    dof rx
    limits (-90.0 20.0)
  end
  begin
     id 11 
     name lowerback
     direction -0.0172471 0.995767 -0.0902851   
     length 2.20206   
     axis 0 0 0   XYZ
    dof rx ry rz
    limits (-20.0 45.0)
           (-30.0 30.0)
           (-30.0 30.0)
  end
  begin
     id 12 
     name upperback
     direction -0.000110737 0.999714 0.0239043   
     length 2.19523   
     axis 0 0 0   XYZ
    dof rx ry rz
    limits (-20.0 45.0)
           (-30.0 30.0)
           (-30.0 30.0)
  end
  begin
     id 13 
     name thorax
     direction 0.00704869 0.997783 0.0661741   
     length 2.21977   
     axis 0 0 0   XYZ
    dof rx ry rz
    limits (-20.0 45.0)
           (-30.0 30.0)
           (-30.0 30.0)
  end
  begin
     id 14 
     name lowerneck
     direction -0.00407501 0.995527 0.0943846   
     length 1.83142   
     axis 0 0 0   XYZ
    dof rx ry rz
    limits (-20.0 45.0)
           (-30.0 30.0)
           (-30.0 30.0)
  end
  begin
     id 15 
     name upperneck
     direction 0.0640586 0.986486 -0.150807   
     length 1.84616   
     axis 0 0 0   XYZ
    dof rx ry rz
    limits (-20.0 45.0)
           (-30.0 30.0)
           (-30.0 30.0)
  end
  begin
     id 16
     name head
     direction 0.0188017 0.99791 -0.0618239  
     length 1.85932  
     axis 0 0 0   XYZ
    dof rx ry rz
    limits (-20.0 45.0)
           (-30.0 30.0)
           (-30.0 30.0)
  end
  begin
     id 17 
     name lclavicle
     direction 0.976074 0.206905 0.066852  
     length 3.81043  
     axis 0 0 0   XYZ
    dof ry rz
    limits (-20.0 10.0)
           (0.0 20.0)
  end
  begin
     id 18 
     name lhumerus
     direction 1 -4.48971e-011 1.86916e-027   
     length 5.37587   
     axis 180 -30 -90   XYZ
    dof rx ry rz
    limits (-60.0 90.0)
           (-90.0 90.0)
           (-90.0 90.0)
  end
  begin
     id 19
     name lradius
     direction 1 -4.48968e-011 1.69187e-027   
     length 3.35977   
     axis 180 -30 -90   XYZ
    dof rx
    limits (-10.0 170.0)
  end
  begin
     id 20
     name lwrist
     direction 1 -4.48968e-011 5.8978e-027   
     length 1.67988   
     axis -3.27506e-015 90 90   XYZ
    dof ry
    limits (-180.0 0.0)
 end
  begin
     id 21 
     name lhand
     direction 1 -4.49028e-011 1.18071e-026   
     length 0.561859   
     axis -7.52654e-015 90 90   XYZ
    dof rx rz
    limits (-90.0 90.0)
           (-45.0 45.0)
  end
  begin
     id 22 
     name lfingers
     direction 1 -4.48927e-011 2.35758e-026   
     length 0.452985   
     axis -1.50534e-014 90 90   XYZ
    dof rx
    limits (0.0 90.0)
  end
  begin
     id 23
     name lthumb
     direction 0.707107 -6.34898e-011 0.707107   
     length 0.650399   
     axis -90 45 5.69224e-014   XYZ
    dof rx rz
    limits (-45.0 45.0)
           (-45.0 45.0)
  end
  begin
     id 24 
     name rclavicle
     direction -0.988403 0.151789 0.00439714   
     length 3.6942  
     axis 0 0 0   XYZ 
    dof ry rz
    limits (-10.0 20.0)
           (-20.0 0.0)
  end
  begin
     id 25 
     name rhumerus
     direction -1 -4.48978e-011 1.62495e-027  
     length 5.22819   
     axis 180 30 90   XYZ
    dof rx ry rz
    limits (-90.0 60.0)
           (-90.0 90.0)
           (-90.0 90.0)
  end
  begin
     id 26 
     name rradius
     direction -1 -4.48961e-011 3.47796e-027   
     length 3.40764   
     axis 180 30 90   XYZ
    dof rx
    limits (-10.0 170.0)
  end
  begin
     id 27 
     name rwrist
     direction -1 -4.48949e-011 5.89602e-027   
     length 1.70382   
     axis -3.27506e-015 -90 -90   XYZ
    dof ry
    limits (-180.0 0.0)
  end
  begin
     id 28
     name rhand
     direction -1 -4.48977e-011 1.17973e-026   
     length 0.583255   
     axis -7.52654e-015 -90 -90   XYZ
    dof rx rz
    limits (-90.0 90.0)
           (-45.0 45.0)
  end
  begin
     id 29
     name rfingers
     direction -1 -4.49099e-011 2.36408e-026   
     length 0.470235   
     axis -1.50534e-014 -90 -90   XYZ
    dof rx
    limits (0.0 90.0)
  end
  begin
     id 30
     name rthumb
     direction -0.707107 -6.35011e-011 0.707107   
     length 0.675167   
     axis -90 -45 -5.69224e-014   XYZ
    dof rx rz
    limits (-45.0 45.0)
           (-45.0 45.0)
  end
:hierarchy
  begin
    root lhipjoint rhipjoint lowerback
    lhipjoint lfemur
    lfemur ltibia
    ltibia lfoot
    lfoot ltoes
    rhipjoint rfemur
    rfemur rtibia
    rtibia rfoot
    rfoot rtoes
    lowerback upperback
    upperback thorax
    thorax lowerneck lclavicle rclavicle
    lowerneck upperneck
    upperneck head
    lclavicle lhumerus
    lhumerus lradius
    lradius lwrist
    lwrist lhand lthumb
    lhand lfingers
    rclavicle rhumerus
    rhumerus rradius
    rradius rwrist
    rwrist rhand rthumb
    rhand rfingers
  end

#!OML:ASF G:\JayActor3\Patient Classification 1\Patient 1\Session 2\male.ASF
:FULLY-SPECIFIED
:DEGREES
1685
root -14.4701 16.7203 -4.95258 809.183 87.9495 446.938
lowerback -0.611385 -1.48697 -5.54165
upperback 7.57208 -1.45091 -0.729428
thorax 8.45301 -0.979961 2.22229
lowerneck 1.45593 -5.69249 -5.77905
upperneck 21.2879 -8.43119 8.96543
head 6.84972 -3.61585 3.42804
rclavicle 1.33186e-014 -2.78299e-015
rhumerus -26.8852 18.0487 -97.1422
rradius 47.8237
rwrist -3.34364
rhand -10.8396 3.39239
rfingers 7.12502
rthumb 15.175 -26.0312
lclavicle 1.33186e-014 -2.78299e-015
lhumerus -24.2961 -18.8208 96.4773
lradius 32.9068
lwrist 12.6027
lhand -12.314 23.0636
lfingers 7.12502
lthumb 13.7544 52.589
rfemur -33.1219 -2.36512 26.5481
rtibia 31.5182
rfoot -6.38402 -9.36453
rtoes 18.2018
lfemur 11.2018 13.7404 -26.8894
ltibia 15.5324
lfoot -8.29081 -3.02596
ltoes -14.3909
1686
root -14.3493 16.7226 -4.96203 816.058 87.9608 453.715
lowerback -0.623167 -1.46542 -5.34911
upperback 7.49577 -1.44251 -0.67322
thorax 8.36792 -0.963633 2.17614
lowerneck 1.30704 -5.5622 -5.54079
upperneck 21.2436 -8.23276 8.82351
head 6.82906 -3.50929 3.35041
rclavicle 2.59414e-014 -5.1684e-015
rhumerus -26.9712 17.9653 -97.111
rradius 47.8125
rwrist -3.46316
rhand -10.6475 3.26647
rfingers 7.12502
rthumb 15.36 -26.143
lclavicle 2.59414e-014 -5.1684e-015
lhumerus -24.4343 -18.8911 96.6209
lradius 33.1335
lwrist 12.69
lhand -12.3462 22.9803
lfingers 7.12502
lthumb 13.7234 52.5077
rfemur -32.8496 -2.01316 26.347
rtibia 31.765
rfoot -7.23397 -9.30989
rtoes 18.5686
lfemur 11.0483 13.6411 -26.7453
ltibia 16.3415
lfoot -7.88391 -3.26791
ltoes -14.5724
1687
root -14.2276 16.7258 -4.97102 822.435 87.9534 459.988
lowerback -0.641852 -1.43406 -5.15828
upperback 7.41439 -1.42031 -0.621361
thorax 8.28048 -0.940611 2.12728
lowerneck 1.12433 -5.4464 -5.28293
upperneck 21.2518 -8.05545 8.6715
head 6.83277 -3.40961 3.26434
rclavicle 1.5207e-014 -3.97569e-016
rhumerus -27.0474 17.8665 -97.0855
rradius 47.7725
rwrist -3.53495
rhand -10.3228 3.07128
rfingers 7.12502
rthumb 15.6727 -26.3139
lclavicle 1.5207e-014 -3.97569e-016
lhumerus -24.5909 -18.9661 96.7593
lradius 33.3764
lwrist 12.7763
lhand -12.3846 22.891
lfingers 7.12502
lthumb 13.6864 52.421
rfemur -32.573 -1.69263 26.1878
rtibia 31.9846
rfoot -8.0826 -9.28577
rtoes 19.0214
lfemur 10.8377 13.552 -26.5903
ltibia 17.229
lfoot -7.44283 -3.50092
ltoes -14.7618
1688
root -14.1048 16.7298 -4.97967 828.179 87.9315 465.622
lowerback -0.674965 -1.39439 -4.97342
upperback 7.33462 -1.38538 -0.571834
thorax 8.20289 -0.912043 2.07985
lowerneck 0.899953 -5.34251 -5.01393
upperneck 21.3015 -7.89608 8.51261
head 6.85881 -3.31611 3.17225
rclavicle -1.09332e-014 -2.98177e-015
rhumerus -27.1056 17.7592 -97.0619
rradius 47.7067
rwrist -3.54084
rhand -9.9597 2.84544
rfingers 7.12502
rthumb 16.0225 -26.512
lclavicle -1.09332e-014 -2.98177e-015
lhumerus -24.7528 -19.0308 96.8885
lradius 33.6314
lwrist 12.8588
lhand -12.4294 22.8033
lfingers 7.12502
lthumb 13.6432 52.3362
rfemur -32.2933 -1.40727 26.0686
rtibia 32.1843
rfoot -8.92479 -9.29668
rtoes 19.5144
lfemur 10.5768 13.4882 -26.4231
ltibia 18.1843
lfoot -6.95133 -3.73455
ltoes -14.9392
1689
root -13.981 16.7349 -4.98826 833.286 87.897 470.616
lowerback -0.719421 -1.35145 -4.79217
upperback 7.25266 -1.3451 -0.526082
thorax 8.12962 -0.88122 2.03055
lowerneck 0.629779 -5.24603 -4.74749
upperneck 21.3954 -7.74881 8.34963
head 6.90889 -3.22675 3.07773
rclavicle 3.97569e-016 -8.34896e-015
rhumerus -27.161 17.6502 -97.0448
rradius 47.6318
rwrist -3.48774
rhand -9.55156 2.58312
rfingers 7.12502
rthumb 16.4154 -26.7423
lclavicle 3.97569e-016 -8.34896e-015
lhumerus -24.9248 -19.062 97.0038
lradius 33.894
lwrist 12.9342
lhand -12.4818 22.699
lfingers 7.12502
lthumb 13.5927 52.2353
rfemur -32.0147 -1.17023 25.985
rtibia 32.3742
rfoot -9.72216 -9.33732
rtoes 20.0034
lfemur 10.269 13.4558 -26.2462
ltibia 19.2021
lfoot -6.39351 -3.97019
ltoes -15.0787
1690
root -13.8563 16.7412 -4.99703 837.798 87.8538 475.012
lowerback -0.77113 -1.30737 -4.61027
upperback 7.16642 -1.30298 -0.48413
thorax 8.05611 -0.84949 1.97682
lowerneck 0.333013 -5.15439 -4.49911
upperneck 21.5123 -7.61063 8.19233
head 6.97353 -3.14175 2.98717
rclavicle 1.26725e-014 2.18663e-015
rhumerus -27.2257 17.5406 -97.0394
rradius 47.5474
rwrist -3.36402
rhand -9.20679 2.33384
rfingers 7.12502
rthumb 16.7474 -26.9638
lclavicle 1.26725e-014 2.18663e-015
lhumerus -25.1086 -19.0461 97.1049
lradius 34.156
lwrist 13.0103
lhand -12.5488 22.5803
lfingers 7.12502
lthumb 13.5281 52.1209
rfemur -31.7406 -0.994923 25.9327
rtibia 32.5606
rfoot -10.4376 -9.38011
rtoes 20.5028
lfemur 9.91058 13.4632 -26.0575
ltibia 20.2906
lfoot -5.75765 -4.21137
ltoes -15.1807
1691
root -13.731 16.7489 -5.00621 841.836 87.8027 478.938
lowerback -0.819998 -1.26714 -4.42777
upperback 7.07525 -1.26644 -0.44332
thorax 7.97636 -0.8205 1.92111
lowerneck 0.0437247 -5.06201 -4.29682
upperneck 21.6268 -7.47469 8.05987
head 7.03958 -3.06017 2.91274
rclavicle -1.83876e-014 7.35503e-015
rhumerus -27.3091 17.4398 -97.046
rradius 47.4656
rwrist -3.20259
rhand -8.93447 2.09546
rfingers 7.12502
rthumb 17.0095 -27.1798
lclavicle -1.83876e-014 7.35503e-015
lhumerus -25.3065 -18.9627 97.1923
lradius 34.411
lwrist 13.0867
lhand -12.6362 22.4685
lfingers 7.12502
lthumb 13.4438 52.0146
rfemur -31.4675 -0.89818 25.9055
rtibia 32.7474
rfoot -11.0411 -9.40508
rtoes 20.9812
lfemur 9.50103 13.5109 -25.8539
ltibia 21.467
lfoot -5.02966 -4.46119
ltoes -15.1339
1692
root -13.6058 16.7581 -5.01584 845.596 87.7475 482.594
lowerback -0.853629 -1.23253 -4.23473
upperback 6.97484 -1.23909 -0.40467
thorax 7.87826 -0.795144 1.85678
lowerneck -0.227791 -4.96696 -4.13506
upperneck 21.7339 -7.33664 7.94507
head 7.10268 -2.98034 2.8517
rclavicle -1.84373e-014 8.15017e-015
rhumerus -27.4254 17.3401 -97.0709
rradius 47.388
rwrist -3.00412
rhand -8.77167 1.88165
rfingers 7.12502
rthumb 17.1662 -27.3801
lclavicle -1.84373e-014 8.15017e-015
lhumerus -25.5252 -18.8082 97.2637
lradius 34.6533
lwrist 13.1659
lhand -12.7651 22.3703
lfingers 7.12502
lthumb 13.3196 51.9247
rfemur -31.195 -0.875543 25.8989
rtibia 32.9344
rfoot -11.5318 -9.40604
rtoes 21.4456
lfemur 9.02591 13.5956 -25.6277
ltibia 22.7546
lfoot -4.19772 -4.71729
ltoes -14.8961
1693
root -13.4814 16.7685 -5.02589 849.206 87.6958 486.111
lowerback -0.872461 -1.20032 -4.02677
upperback 6.87844 -1.21593 -0.364383
thorax 7.77616 -0.771078 1.78562
lowerneck -0.492101 -4.87397 -4.00446
upperneck 21.8211 -7.20233 7.84316
head 7.16037 -2.90508 2.80008
rclavicle 2.73329e-014 6.16232e-015
rhumerus -27.5471 17.2391 -97.1013
rradius 47.3096
rwrist -2.79078
rhand -8.70721 1.68366
rfingers 7.12502
rthumb 17.2283 -27.5726
lclavicle 2.73329e-014 6.16232e-015
lhumerus -25.7431 -18.6086 97.3208
lradius 34.8781
lwrist 13.2801
lhand -12.9924 22.2695
lfingers 7.12502
lthumb 13.1006 51.838
rfemur -30.9162 -0.917866 25.9134
rtibia 33.118
rfoot -11.9256 -9.37071
rtoes 21.8865
lfemur 8.47403 13.7202 -25.367
ltibia 24.1781
lfoot -3.25648 -4.98039
ltoes -14.4402
1694
root -13.3584 16.7795 -5.03619 852.772 87.6526 489.604
lowerback -0.865701 -1.16924 -3.79778
upperback 6.78596 -1.19568 -0.324641
thorax 7.66332 -0.747099 1.7022
lowerneck -0.747324 -4.78366 -3.89198
upperneck 21.8943 -7.07165 7.74545
head 7.21333 -2.83372 2.75294
rclavicle 9.0944e-015 -8.34896e-015
rhumerus -27.6784 17.1343 -97.1437
rradius 47.2242
rwrist -2.5633
rhand -8.67833 1.46248
rfingers 7.12502
rthumb 17.2561 -27.7914
lclavicle 9.0944e-015 -8.34896e-015
lhumerus -25.9632 -18.3773 97.3588
lradius 35.0818
lwrist 13.4213
lhand -13.3381 22.1593
lfingers 7.12502
lthumb 12.7673 51.7489
rfemur -30.6199 -1.00524 25.9473
rtibia 33.2922
rfoot -12.2579 -9.29466
rtoes 22.3206
lfemur 7.84024 13.8841 -25.062
ltibia 25.7533
lfoot -2.20729 -5.24651
ltoes -13.7788
1695
root -13.2373 16.7906 -5.04641 856.36 87.6248 493.135
lowerback -0.832576 -1.13824 -3.54908
upperback 6.69959 -1.17681 -0.281455
thorax 7.54178 -0.722788 1.61155
lowerneck -0.999402 -4.69617 -3.79201
upperneck 21.9564 -6.94359 7.64341
head 7.26297 -2.76583 2.70646
rclavicle 2.45996e-015 8.24956e-015
rhumerus -27.8102 17.0337 -97.1898
rradius 47.1239
rwrist -2.30455
rhand -8.68508 1.25193
rfingers 7.12502
rthumb 17.2496 -28.0025
lclavicle 2.45996e-015 8.24956e-015
lhumerus -26.1767 -18.1166 97.3764
lradius 35.2641
lwrist 13.5622
lhand -13.7951 22.0277
lfingers 7.12502
lthumb 12.3266 51.6443
rfemur -30.305 -1.12267 26.0059
rtibia 33.4504
rfoot -12.5544 -9.17842
rtoes 22.7177
lfemur 7.11757 14.082 -24.7081
ltibia 27.4829
lfoot -1.05899 -5.51322
ltoes -13.0232
1696
root -13.1186 16.8016 -5.05618 859.985 87.611 496.719
lowerback -0.780822 -1.10561 -3.29297
upperback 6.62719 -1.15549 -0.232762
thorax 7.42485 -0.69727 1.52273
lowerneck -1.25762 -4.61474 -3.69636
upperneck 22.0052 -6.82235 7.53192
head 7.31002 -2.70317 2.65699
rclavicle 1.88348e-014 -2.08724e-015
rhumerus -27.9239 16.9463 -97.2304
rradius 47.0036
rwrist -2.02334
rhand -8.77431 1.09741
rfingers 7.12502
rthumb 17.1637 -28.1645
lclavicle 1.88348e-014 -2.08724e-015
lhumerus -26.3703 -17.8387 97.3717
lradius 35.4266
lwrist 13.6778
lhand -14.3502 21.8599
lfingers 7.12502
lthumb 11.7914 51.508
rfemur -29.9681 -1.25474 26.0862
rtibia 33.5864
rfoot -12.8402 -9.03212
rtoes 23.0885
lfemur 6.30672 14.3037 -24.3084
ltibia 29.3543
lfoot 0.179025 -5.78262
ltoes -12.238
1697
root -13.002 16.8124 -5.06526 863.743 87.6097 500.45
lowerback -0.713003 -1.0524 -3.014
upperback 6.58697 -1.1044 -0.196905
thorax 7.33143 -0.655464 1.40968
lowerneck -1.58905 -4.55914 -3.54446
upperneck 22.0559 -6.74106 7.40961
head 7.37142 -2.65511 2.59002
rclavicle 1.29955e-014 -8.05078e-015
rhumerus -27.9687 16.8015 -97.2573
rradius 46.8703
rwrist -1.73863
rhand -8.894 0.980416
rfingers 7.12502
rthumb 17.0485 -28.2915
lclavicle 1.29955e-014 -8.05078e-015
lhumerus -26.5111 -17.642 97.3257
lradius 35.5762
lwrist 13.7644
lhand -14.9921 21.6561
lfingers 7.12502
lthumb 11.1723 51.3386
rfemur -29.606 -1.39282 26.1898
rtibia 33.6946
rfoot -13.1275 -8.87032
rtoes 23.4159
lfemur 5.42208 14.5312 -23.8668
ltibia 31.3466
lfoot 1.48229 -6.05596
ltoes -11.5177
1698
root -12.8876 16.8231 -5.07357 867.553 87.6134 504.245
lowerback -0.638435 -0.977963 -2.7203
upperback 6.57929 -1.02179 -0.177935
thorax 7.26778 -0.596806 1.27259
lowerneck -1.98595 -4.52899 -3.33552
upperneck 22.1006 -6.70086 7.2814
head 7.44342 -2.62208 2.50699
rclavicle -3.8763e-015 8.00108e-015
rhumerus -27.9426 16.5915 -97.2675
rradius 46.7262
rwrist -1.44808
rhand -8.9701 0.873346
rfingers 7.12502
rthumb 16.9752 -28.4049
lclavicle -3.8763e-015 8.00108e-015
lhumerus -26.5956 -17.538 97.2369
lradius 35.7164
lwrist 13.8182
lhand -15.7044 21.433
lfingers 7.12502
lthumb 10.4854 51.1515
rfemur -29.2226 -1.52978 26.3085
rtibia 33.7713
rfoot -13.4187 -8.7128
rtoes 23.6503
lfemur 4.46981 14.7364 -23.4037
ltibia 33.4309
lfoot 2.83857 -6.31921
ltoes -10.8005
